<svg width="115" height="149" viewBox="0 0 115 149" fill="none" xmlns="http://www.w3.org/2000/svg">
<g clip-path="url(#clip0_512_3532)">
<path d="M114.672 78.7751C115 83.8512 104.272 90.4141 90.7112 93.4338C77.15 96.4535 64.2481 100.301 65.5621 89.7099C67.5198 73.9347 75.9613 78.071 89.5225 75.0513C103.084 72.0316 114.343 73.699 114.672 78.7751Z" fill="#ECECEC"/>
<path d="M114.672 78.7751C115 83.8512 104.272 90.4141 90.7112 93.4338C77.15 96.4535 64.2481 100.301 65.5621 89.7099C67.5198 73.9347 75.9613 78.071 89.5225 75.0513C103.084 72.0316 114.343 73.699 114.672 78.7751Z" fill="url(#paint0_linear_512_3532)" fill-opacity="0.15"/>
<path d="M21.6736 87.6465C20.5502 120.912 34.1482 148.37 52.0458 148.974C69.9433 149.579 85.3628 123.101 86.4863 89.8353C87.6098 56.5694 74.0117 29.112 56.1142 28.5076C38.2167 27.9031 22.7971 54.3805 21.6736 87.6465Z" fill="#ECECEC"/>
<path d="M21.6736 87.6465C20.5502 120.912 34.1482 148.37 52.0458 148.974C69.9433 149.579 85.3628 123.101 86.4863 89.8353C87.6098 56.5694 74.0117 29.112 56.1142 28.5076C38.2167 27.9031 22.7971 54.3805 21.6736 87.6465Z" fill="url(#paint1_linear_512_3532)" fill-opacity="0.1"/>
<path d="M21.6736 87.6465C20.5502 120.912 34.1482 148.37 52.0458 148.974C69.9433 149.579 85.3628 123.101 86.4863 89.8353C87.6098 56.5694 74.0117 29.112 56.1142 28.5076C38.2167 27.9031 22.7971 54.3805 21.6736 87.6465Z" fill="url(#paint2_linear_512_3532)" fill-opacity="0.1"/>
<path d="M27.2545 83.0466C34.712 88.2911 27.3976 97.3363 20.3045 107.945C13.2115 118.555 4.823 124.608 1.5683 121.466C-1.68637 118.324 1.42522 107.176 8.51827 96.5671C15.6113 85.958 19.2415 76.739 27.2545 83.0466Z" fill="#ECECEC"/>
<path d="M27.2545 83.0466C34.712 88.2911 27.3976 97.3363 20.3045 107.945C13.2115 118.555 4.823 124.608 1.5683 121.466C-1.68637 118.324 1.42522 107.176 8.51827 96.5671C15.6113 85.958 19.2415 76.739 27.2545 83.0466Z" fill="url(#paint3_linear_512_3532)" fill-opacity="0.15"/>
<path d="M27.2545 83.0466C34.712 88.2911 27.3976 97.3363 20.3045 107.945C13.2115 118.555 4.823 124.608 1.5683 121.466C-1.68637 118.324 1.42522 107.176 8.51827 96.5671C15.6113 85.958 19.2415 76.739 27.2545 83.0466Z" fill="url(#paint4_linear_512_3532)" fill-opacity="0.15"/>
<path fill-rule="evenodd" clip-rule="evenodd" d="M28.3552 126.859C28.5448 130.24 39.3319 133.316 52.7071 133.768C66.0824 134.22 77.0519 131.878 77.4694 128.518C77.4722 128.566 77.4727 128.614 77.4711 128.663C77.355 132.1 66.2632 134.516 52.6974 134.057C39.1311 133.599 28.2276 130.441 28.3437 127.004C28.3454 126.955 28.3492 126.907 28.3552 126.859Z" fill="#3A3A3A"/>
<path d="M77.93 97.5322C77.9645 98.7521 77.8434 99.8462 77.5669 100.814C77.2903 101.783 76.8997 102.644 76.3958 103.399C75.905 104.14 75.3285 104.781 74.666 105.321C74.0038 105.861 73.3042 106.313 72.5679 106.676C71.8446 107.026 71.1051 107.287 70.3493 107.46C69.6074 107.631 68.9048 107.727 68.2414 107.746L79.7724 117.07L71.4388 117.306L59.9287 107.981L56.0519 108.091L55.8999 102.745L68.0894 102.399C68.7649 102.326 69.3758 102.171 69.9225 101.936C70.4826 101.687 70.9575 101.365 71.3472 100.97C71.7511 100.574 72.0556 100.106 72.2617 99.5653C72.4671 99.0107 72.5598 98.3838 72.54 97.6847L72.444 94.3129C72.4354 94.0111 72.3875 93.786 72.3003 93.6377C72.2266 93.475 72.1266 93.3614 72 93.2963C71.8872 93.2172 71.7615 93.1729 71.6228 93.1629C71.4982 93.1529 71.3804 93.1495 71.2698 93.1525L53.4834 93.6559L54.1708 117.795L48.7808 117.947L48.0182 91.156C48.0074 90.7861 48.0667 90.4344 48.1956 90.1018C48.3242 89.7689 48.5025 89.4756 48.7307 89.2221C48.9724 88.9685 49.2571 88.7683 49.5847 88.6219C49.9127 88.4755 50.2701 88.3967 50.6571 88.3857L71.1177 87.8067C72.3199 87.7727 73.342 87.963 74.1836 88.3784C75.0251 88.7796 75.7107 89.3022 76.2407 89.9456C76.7842 90.5751 77.1775 91.2636 77.4199 92.0113C77.6765 92.7586 77.8141 93.461 77.8327 94.1189L77.93 97.5322Z" fill="#0765EB"/>
<path d="M52.9861 83.9411C79.9848 85.8353 103.113 69.5669 104.645 47.6045C106.176 25.6422 85.531 6.30251 58.5324 4.40823C31.5337 2.51395 8.40541 18.7824 6.87386 40.7448C5.34231 62.7071 25.9875 82.0468 52.9861 83.9411Z" fill="#ECECEC"/>
<path d="M52.9861 83.9411C79.9848 85.8353 103.113 69.5669 104.645 47.6045C106.176 25.6422 85.531 6.30251 58.5324 4.40823C31.5337 2.51395 8.40541 18.7824 6.87386 40.7448C5.34231 62.7071 25.9875 82.0468 52.9861 83.9411Z" fill="url(#paint5_linear_512_3532)" fill-opacity="0.15"/>
<path d="M14.2254 3.43123C14.2651 2.86135 14.7602 2.43182 15.3312 2.47188C15.9021 2.51196 16.3328 3.00642 16.293 3.57632L14.8708 23.971L12.8032 23.8259L14.2254 3.43123Z" fill="#ECECEC"/>
<path d="M14.2254 3.43123C14.2651 2.86135 14.7602 2.43182 15.3312 2.47188C15.9021 2.51196 16.3328 3.00642 16.293 3.57632L14.8708 23.971L12.8032 23.8259L14.2254 3.43123Z" fill="url(#paint6_linear_512_3532)" fill-opacity="0.2"/>
<path d="M100.476 9.48275C100.516 8.91287 101.011 8.48336 101.582 8.52343C102.153 8.56343 102.583 9.05793 102.544 9.62781L101.121 30.0226L99.0537 29.8775L100.476 9.48275Z" fill="#ECECEC"/>
<path d="M100.476 9.48275C100.516 8.91287 101.011 8.48336 101.582 8.52343C102.153 8.56343 102.583 9.05793 102.544 9.62781L101.121 30.0226L99.0537 29.8775L100.476 9.48275Z" fill="url(#paint7_linear_512_3532)" fill-opacity="0.07"/>
<path d="M10.621 57.2474C14.1284 57.4935 17.5103 49.9698 18.1746 40.4427C18.839 30.9156 16.5343 22.9929 13.0269 22.7468C9.51956 22.5008 6.13769 30.0245 5.47332 39.5515C4.80895 49.0786 7.11366 57.0013 10.621 57.2474Z" fill="#3A3A3A"/>
<path d="M10.3251 57.2267C13.8325 57.4728 17.2144 49.9491 17.8787 40.422C18.5431 30.8949 16.2384 22.9722 12.731 22.7262C9.22366 22.4801 5.84179 30.0038 5.17742 39.5309C4.51305 49.0579 6.81776 56.9806 10.3251 57.2267Z" fill="#ECECEC"/>
<path d="M10.3251 57.2267C13.8325 57.4728 17.2144 49.9491 17.8787 40.422C18.5431 30.8949 16.2384 22.9722 12.731 22.7262C9.22366 22.4801 5.84179 30.0038 5.17742 39.5309C4.51305 49.0579 6.81776 56.9806 10.3251 57.2267Z" fill="url(#paint8_linear_512_3532)" fill-opacity="0.15"/>
<path d="M98.6434 63.4234C95.136 63.1773 92.8313 55.2546 93.4956 45.7275C94.16 36.2005 97.5419 28.6768 101.049 28.9228C104.557 29.1689 106.861 37.0916 106.197 46.6187C105.533 56.1457 102.151 63.6695 98.6434 63.4234Z" fill="#3A3A3A"/>
<path d="M98.9397 63.444C95.4324 63.1979 93.1277 55.2752 93.792 45.7481C94.4564 36.221 97.8383 28.6973 101.346 28.9434C104.853 29.1895 107.158 37.1122 106.493 46.6393C105.829 56.1663 102.447 63.69 98.9397 63.444Z" fill="#ECECEC"/>
<path d="M98.9397 63.444C95.4324 63.1979 93.1277 55.2752 93.792 45.7481C94.4564 36.221 97.8383 28.6973 101.346 28.9434C104.853 29.1895 107.158 37.1122 106.493 46.6393C105.829 56.1663 102.447 63.69 98.9397 63.444Z" fill="url(#paint9_linear_512_3532)" fill-opacity="0.1"/>
<g filter="url(#filter0_d_512_3532)">
<path d="M100.476 9.48312C100.516 8.91307 101.011 8.48339 101.582 8.52344C102.153 8.56341 102.583 9.05804 102.543 9.62809L102.413 11.5021L100.345 11.3571L100.476 9.48312Z" fill="#0085FF"/>
</g>
<path d="M89.6676 47.9688C87.4383 79.8394 73.2392 65.2591 54.5571 63.9523C35.875 62.6455 22.0209 74.6899 23.0322 43.4022C25.3412 10.3926 38.6278 23.2903 57.3099 24.5971C75.992 25.9039 92.0657 13.6838 89.6676 47.9688Z" fill="#080810"/>
<path d="M89.6676 47.9688C87.4383 79.8394 73.2392 65.2591 54.5571 63.9523C35.875 62.6455 22.0209 74.6899 23.0322 43.4022C25.3412 10.3926 38.6278 23.2903 57.3099 24.5971C75.992 25.9039 92.0657 13.6838 89.6676 47.9688Z" fill="url(#paint10_linear_512_3532)"/>
<g filter="url(#filter1_d_512_3532)">
<path d="M44.1622 42.1614C44.2358 41.1089 43.967 40.0758 43.4149 39.2893C42.8628 38.5028 42.0726 38.0274 41.2182 37.9677C40.3638 37.9079 39.5151 38.2687 38.8589 38.9706C38.2026 39.6726 37.7926 40.6582 37.719 41.7107L40.9406 41.936L44.1622 42.1614Z" fill="#24B0FF"/>
<path d="M48.9395 45.3957C48.8324 46.9265 49.4548 48.4454 50.6698 49.6182C51.8848 50.791 53.5929 51.5216 55.4182 51.6492C57.2436 51.7769 59.0367 51.2912 60.4032 50.299C61.7696 49.3068 62.5975 47.8894 62.7045 46.3585L55.822 45.8771L48.9395 45.3957Z" fill="#24B0FF"/>
<path d="M74.6212 44.2919C74.6948 43.2394 74.426 42.2063 73.8739 41.4199C73.3218 40.6334 72.5316 40.158 71.6772 40.0982C70.8228 40.0384 69.9741 40.3992 69.3179 41.1012C68.6616 41.8031 68.2516 42.7888 68.178 43.8412L71.3996 44.0666L74.6212 44.2919Z" fill="#24B0FF"/>
</g>
<g filter="url(#filter2_d_512_3532)">
<path d="M14.2275 3.4316C14.2672 2.86153 14.7622 2.43172 15.3332 2.47161C15.9042 2.51152 16.3349 3.00599 16.2953 3.57609L16.165 5.45011L14.0973 5.30566L14.2275 3.4316Z" fill="#0085FF"/>
</g>
</g>
<defs>
<filter id="filter0_d_512_3532" x="95.5263" y="3.70244" width="11.838" height="12.6181" filterUnits="userSpaceOnUse" color-interpolation-filters="sRGB">
<feFlood flood-opacity="0" result="BackgroundImageFix"/>
<feColorMatrix in="SourceAlpha" type="matrix" values="0 0 0 0 0 0 0 0 0 0 0 0 0 0 0 0 0 0 127 0" result="hardAlpha"/>
<feOffset/>
<feGaussianBlur stdDeviation="2.40921"/>
<feComposite in2="hardAlpha" operator="out"/>
<feColorMatrix type="matrix" values="0 0 0 0 0.141176 0 0 0 0 0.690196 0 0 0 0 1 0 0 0 1 0"/>
<feBlend mode="normal" in2="BackgroundImageFix" result="effect1_dropShadow_512_3532"/>
<feBlend mode="normal" in="SourceGraphic" in2="effect1_dropShadow_512_3532" result="shape"/>
</filter>
<filter id="filter1_d_512_3532" x="28.0824" y="28.3244" width="56.1878" height="32.9818" filterUnits="userSpaceOnUse" color-interpolation-filters="sRGB">
<feFlood flood-opacity="0" result="BackgroundImageFix"/>
<feColorMatrix in="SourceAlpha" type="matrix" values="0 0 0 0 0 0 0 0 0 0 0 0 0 0 0 0 0 0 127 0" result="hardAlpha"/>
<feOffset/>
<feGaussianBlur stdDeviation="4.81843"/>
<feComposite in2="hardAlpha" operator="out"/>
<feColorMatrix type="matrix" values="0 0 0 0 0.141176 0 0 0 0 0.690196 0 0 0 0 1 0 0 0 0.8 0"/>
<feBlend mode="normal" in2="BackgroundImageFix" result="effect1_dropShadow_512_3532"/>
<feBlend mode="normal" in="SourceGraphic" in2="effect1_dropShadow_512_3532" result="shape"/>
</filter>
<filter id="filter2_d_512_3532" x="9.27874" y="-2.34937" width="11.8375" height="12.6179" filterUnits="userSpaceOnUse" color-interpolation-filters="sRGB">
<feFlood flood-opacity="0" result="BackgroundImageFix"/>
<feColorMatrix in="SourceAlpha" type="matrix" values="0 0 0 0 0 0 0 0 0 0 0 0 0 0 0 0 0 0 127 0" result="hardAlpha"/>
<feOffset/>
<feGaussianBlur stdDeviation="2.40921"/>
<feComposite in2="hardAlpha" operator="out"/>
<feColorMatrix type="matrix" values="0 0 0 0 0.141176 0 0 0 0 0.690196 0 0 0 0 1 0 0 0 1 0"/>
<feBlend mode="normal" in2="BackgroundImageFix" result="effect1_dropShadow_512_3532"/>
<feBlend mode="normal" in="SourceGraphic" in2="effect1_dropShadow_512_3532" result="shape"/>
</filter>
<linearGradient id="paint0_linear_512_3532" x1="96.5078" y1="92.4613" x2="94.5387" y2="83.6187" gradientUnits="userSpaceOnUse">
<stop/>
<stop offset="1" stop-opacity="0"/>
</linearGradient>
<linearGradient id="paint1_linear_512_3532" x1="21.6736" y1="87.6465" x2="53.932" y2="88.7359" gradientUnits="userSpaceOnUse">
<stop/>
<stop offset="1" stop-opacity="0"/>
</linearGradient>
<linearGradient id="paint2_linear_512_3532" x1="57.7958" y1="70.8304" x2="52.8041" y2="88.5277" gradientUnits="userSpaceOnUse">
<stop/>
<stop offset="1" stop-opacity="0"/>
</linearGradient>
<linearGradient id="paint3_linear_512_3532" x1="20.3046" y1="107.945" x2="13.6338" y2="103.486" gradientUnits="userSpaceOnUse">
<stop/>
<stop offset="1" stop-opacity="0"/>
</linearGradient>
<linearGradient id="paint4_linear_512_3532" x1="37.6785" y1="111.208" x2="22.2715" y2="102.664" gradientUnits="userSpaceOnUse">
<stop offset="0.596353"/>
<stop offset="1" stop-opacity="0"/>
</linearGradient>
<linearGradient id="paint5_linear_512_3532" x1="52.9861" y1="83.9411" x2="55.7634" y2="44.3574" gradientUnits="userSpaceOnUse">
<stop/>
<stop offset="1" stop-opacity="0"/>
</linearGradient>
<linearGradient id="paint6_linear_512_3532" x1="13.837" y1="23.8985" x2="14.5852" y2="13.2345" gradientUnits="userSpaceOnUse">
<stop/>
<stop offset="1" stop-opacity="0"/>
</linearGradient>
<linearGradient id="paint7_linear_512_3532" x1="100.087" y1="29.95" x2="100.836" y2="19.286" gradientUnits="userSpaceOnUse">
<stop/>
<stop offset="1" stop-opacity="0"/>
</linearGradient>
<linearGradient id="paint8_linear_512_3532" x1="10.3251" y1="57.2267" x2="11.5299" y2="40.0557" gradientUnits="userSpaceOnUse">
<stop/>
<stop offset="1" stop-opacity="0"/>
</linearGradient>
<linearGradient id="paint9_linear_512_3532" x1="98.9397" y1="63.444" x2="100.144" y2="46.273" gradientUnits="userSpaceOnUse">
<stop/>
<stop offset="1" stop-opacity="0"/>
</linearGradient>
<linearGradient id="paint10_linear_512_3532" x1="57.9995" y1="22.1027" x2="56.9921" y2="38.6326" gradientUnits="userSpaceOnUse">
<stop stop-color="#63636A"/>
<stop offset="1" stop-color="#63636A" stop-opacity="0"/>
</linearGradient>
<clipPath id="clip0_512_3532">
<rect width="115" height="149" fill="white"/>
</clipPath>
</defs>
</svg>
