<svg width="39" height="32" viewBox="0 0 39 32" fill="none" xmlns="http://www.w3.org/2000/svg">
<path d="M17.9477 31.934C28.006 32.625 36.6225 26.6899 37.193 18.6773C37.7636 10.6648 30.0723 3.60916 20.014 2.91807C9.95564 2.22699 1.33921 8.16217 0.768637 16.1747C0.19806 24.1872 7.8894 31.2429 17.9477 31.934Z" fill="#ECECEC"/>
<path d="M17.9477 31.934C28.006 32.625 36.6225 26.6899 37.193 18.6773C37.7636 10.6648 30.0723 3.60916 20.014 2.91807C9.95564 2.22699 1.33921 8.16217 0.768637 16.1747C0.19806 24.1872 7.8894 31.2429 17.9477 31.934Z" fill="url(#paint0_linear_512_3742)" fill-opacity="0.15"/>
<path d="M3.50704 2.56152C3.52185 2.35361 3.70629 2.19691 3.91902 2.21152C4.13172 2.22614 4.29216 2.40653 4.27735 2.61445L3.74751 10.055L2.9772 10.0021L3.50704 2.56152Z" fill="#ECECEC"/>
<path d="M3.50704 2.56152C3.52185 2.35361 3.70629 2.19691 3.91902 2.21152C4.13172 2.22614 4.29216 2.40653 4.27735 2.61445L3.74751 10.055L2.9772 10.0021L3.50704 2.56152Z" fill="url(#paint1_linear_512_3742)" fill-opacity="0.2"/>
<path d="M35.6399 4.76935C35.6547 4.56144 35.8391 4.40474 36.0519 4.41936C36.2645 4.43395 36.425 4.61436 36.4102 4.82227L35.8803 12.2629L35.11 12.21L35.6399 4.76935Z" fill="#ECECEC"/>
<path d="M35.6399 4.76935C35.6547 4.56144 35.8391 4.40474 36.0519 4.41936C36.2645 4.43395 36.425 4.61436 36.4102 4.82227L35.8803 12.2629L35.11 12.21L35.6399 4.76935Z" fill="url(#paint2_linear_512_3742)" fill-opacity="0.07"/>
<path d="M2.16444 22.1953C3.47111 22.2851 4.73102 19.5402 4.97853 16.0644C5.22604 12.5887 4.36742 9.69826 3.06076 9.60848C1.75409 9.5187 0.494177 12.2636 0.246667 15.7393C-0.000843689 19.2151 0.857773 22.1055 2.16444 22.1953Z" fill="#3A3A3A"/>
<path d="M2.05409 22.1877C3.36076 22.2775 4.62067 19.5326 4.86818 16.0569C5.11569 12.5811 4.25707 9.69069 2.9504 9.60091C1.64374 9.51113 0.383826 12.256 0.136315 15.7318C-0.111195 19.2075 0.747421 22.0979 2.05409 22.1877Z" fill="#ECECEC"/>
<path d="M2.05409 22.1877C3.36076 22.2775 4.62067 19.5326 4.86818 16.0569C5.11569 12.5811 4.25707 9.69069 2.9504 9.60091C1.64374 9.51113 0.383826 12.256 0.136315 15.7318C-0.111195 19.2075 0.747421 22.0979 2.05409 22.1877Z" fill="url(#paint3_linear_512_3742)" fill-opacity="0.15"/>
<path d="M34.957 24.4485C33.6503 24.3587 32.7917 21.4683 33.0392 17.9925C33.2867 14.5168 34.5466 11.7719 35.8533 11.8617C37.16 11.9515 38.0186 14.8419 37.7711 18.3176C37.5236 21.7934 36.2637 24.5382 34.957 24.4485Z" fill="#3A3A3A"/>
<path d="M35.0673 24.4559C33.7607 24.3661 32.9021 21.4757 33.1496 18C33.3971 14.5242 34.657 11.7793 35.9637 11.8691C37.2703 11.9589 38.1289 14.8493 37.8814 18.3251C37.6339 21.8008 36.374 24.5457 35.0673 24.4559Z" fill="#ECECEC"/>
<path d="M35.0673 24.4559C33.7607 24.3661 32.9021 21.4757 33.1496 18C33.3971 14.5242 34.657 11.7793 35.9637 11.8691C37.2703 11.9589 38.1289 14.8493 37.8814 18.3251C37.6339 21.8008 36.374 24.5457 35.0673 24.4559Z" fill="url(#paint4_linear_512_3742)" fill-opacity="0.1"/>
<g filter="url(#filter0_d_512_3742)">
<path d="M35.6418 4.77048C35.6574 4.56213 35.8419 4.40442 36.0539 4.41825C36.2657 4.43204 36.4249 4.61216 36.4092 4.82051L36.3579 5.50546L35.5904 5.45543L35.6418 4.77048Z" fill="#0085FF"/>
</g>
<path d="M31.613 19.1872C30.7825 31.0605 25.4926 25.6286 18.5326 25.1418C11.5726 24.655 6.41127 29.1421 6.78803 17.4859C7.64824 5.18819 12.5982 9.99322 19.5582 10.4801C26.5182 10.9669 32.5064 6.41433 31.613 19.1872Z" fill="#080810"/>
<path d="M31.613 19.1872C30.7825 31.0605 25.4926 25.6286 18.5326 25.1418C11.5726 24.655 6.41127 29.1421 6.78803 17.4859C7.64824 5.18819 12.5982 9.99322 19.5582 10.4801C26.5182 10.9669 32.5064 6.41433 31.613 19.1872Z" fill="url(#paint5_linear_512_3742)"/>
<g filter="url(#filter1_d_512_3742)">
<path d="M14.6598 17.0236C14.6872 16.6315 14.5871 16.2466 14.3814 15.9536C14.1757 15.6606 13.8813 15.4835 13.563 15.4612C13.2447 15.4389 12.9285 15.5734 12.684 15.8349C12.4396 16.0964 12.2868 16.4636 12.2594 16.8557L13.4596 16.9396L14.6598 17.0236Z" fill="#24B0FF"/>
<path d="M16.4397 18.2285C16.3998 18.7988 16.6317 19.3647 17.0844 19.8016C17.537 20.2385 18.1734 20.5107 18.8534 20.5583C19.5334 20.6058 20.2015 20.4249 20.7105 20.0552C21.2196 19.6856 21.528 19.1575 21.5679 18.5872L19.0038 18.4078L16.4397 18.2285Z" fill="#24B0FF"/>
<path d="M26.0075 17.8173C26.0349 17.4252 25.9347 17.0403 25.729 16.7473C25.5234 16.4543 25.229 16.2772 24.9107 16.2549C24.5923 16.2326 24.2762 16.3671 24.0317 16.6286C23.7872 16.8901 23.6345 17.2573 23.607 17.6494L24.8072 17.7333L26.0075 17.8173Z" fill="#24B0FF"/>
</g>
<g filter="url(#filter2_d_512_3742)">
<path d="M3.50764 2.56154C3.52239 2.35363 3.7068 2.19688 3.91952 2.21144C4.13223 2.22601 4.29272 2.40636 4.27796 2.61429L4.22947 3.29777L3.45915 3.24504L3.50764 2.56154Z" fill="#0085FF"/>
</g>
<defs>
<filter id="filter0_d_512_3742" x="33.7952" y="2.62232" width="4.41003" height="4.67822" filterUnits="userSpaceOnUse" color-interpolation-filters="sRGB">
<feFlood flood-opacity="0" result="BackgroundImageFix"/>
<feColorMatrix in="SourceAlpha" type="matrix" values="0 0 0 0 0 0 0 0 0 0 0 0 0 0 0 0 0 0 127 0" result="hardAlpha"/>
<feOffset/>
<feGaussianBlur stdDeviation="0.897551"/>
<feComposite in2="hardAlpha" operator="out"/>
<feColorMatrix type="matrix" values="0 0 0 0 0.141176 0 0 0 0 0.690196 0 0 0 0 1 0 0 0 1 0"/>
<feBlend mode="normal" in2="BackgroundImageFix" result="effect1_dropShadow_512_3742"/>
<feBlend mode="normal" in="SourceGraphic" in2="effect1_dropShadow_512_3742" result="shape"/>
</filter>
<filter id="filter1_d_512_3742" x="8.66907" y="11.8686" width="20.9328" height="12.2873" filterUnits="userSpaceOnUse" color-interpolation-filters="sRGB">
<feFlood flood-opacity="0" result="BackgroundImageFix"/>
<feColorMatrix in="SourceAlpha" type="matrix" values="0 0 0 0 0 0 0 0 0 0 0 0 0 0 0 0 0 0 127 0" result="hardAlpha"/>
<feOffset/>
<feGaussianBlur stdDeviation="1.7951"/>
<feComposite in2="hardAlpha" operator="out"/>
<feColorMatrix type="matrix" values="0 0 0 0 0.141176 0 0 0 0 0.690196 0 0 0 0 1 0 0 0 0.8 0"/>
<feBlend mode="normal" in2="BackgroundImageFix" result="effect1_dropShadow_512_3742"/>
<feBlend mode="normal" in="SourceGraphic" in2="effect1_dropShadow_512_3742" result="shape"/>
</filter>
<filter id="filter2_d_512_3742" x="1.66388" y="0.415409" width="4.41003" height="4.67748" filterUnits="userSpaceOnUse" color-interpolation-filters="sRGB">
<feFlood flood-opacity="0" result="BackgroundImageFix"/>
<feColorMatrix in="SourceAlpha" type="matrix" values="0 0 0 0 0 0 0 0 0 0 0 0 0 0 0 0 0 0 127 0" result="hardAlpha"/>
<feOffset/>
<feGaussianBlur stdDeviation="0.897551"/>
<feComposite in2="hardAlpha" operator="out"/>
<feColorMatrix type="matrix" values="0 0 0 0 0.141176 0 0 0 0 0.690196 0 0 0 0 1 0 0 0 1 0"/>
<feBlend mode="normal" in2="BackgroundImageFix" result="effect1_dropShadow_512_3742"/>
<feBlend mode="normal" in="SourceGraphic" in2="effect1_dropShadow_512_3742" result="shape"/>
</filter>
<linearGradient id="paint0_linear_512_3742" x1="17.9477" y1="31.934" x2="18.9401" y2="17.4898" gradientUnits="userSpaceOnUse">
<stop/>
<stop offset="1" stop-opacity="0"/>
</linearGradient>
<linearGradient id="paint1_linear_512_3742" x1="3.36235" y1="10.0286" x2="3.62972" y2="6.13724" gradientUnits="userSpaceOnUse">
<stop/>
<stop offset="1" stop-opacity="0"/>
</linearGradient>
<linearGradient id="paint2_linear_512_3742" x1="35.4951" y1="12.2364" x2="35.7625" y2="8.34506" gradientUnits="userSpaceOnUse">
<stop/>
<stop offset="1" stop-opacity="0"/>
</linearGradient>
<linearGradient id="paint3_linear_512_3742" x1="2.05409" y1="22.1877" x2="2.48459" y2="15.922" gradientUnits="userSpaceOnUse">
<stop/>
<stop offset="1" stop-opacity="0"/>
</linearGradient>
<linearGradient id="paint4_linear_512_3742" x1="35.0673" y1="24.4559" x2="35.4979" y2="18.1902" gradientUnits="userSpaceOnUse">
<stop/>
<stop offset="1" stop-opacity="0"/>
</linearGradient>
<linearGradient id="paint5_linear_512_3742" x1="19.8151" y1="9.55077" x2="19.4398" y2="15.709" gradientUnits="userSpaceOnUse">
<stop stop-color="#63636A"/>
<stop offset="1" stop-color="#63636A" stop-opacity="0"/>
</linearGradient>
</defs>
</svg>
