<svg width="136" height="49" viewBox="0 0 136 49" fill="none" xmlns="http://www.w3.org/2000/svg">
<rect width="136" height="49" rx="10" fill="#09105E"/>
<path d="M31.309 15.9931C31.309 16.82 31.2051 17.5586 30.9972 18.209C30.7894 18.8593 30.5059 19.4354 30.1469 19.9371C29.7973 20.4295 29.391 20.8523 28.9281 21.2053C28.4651 21.5584 27.9785 21.851 27.4683 22.0833C26.9676 22.3063 26.4573 22.4689 25.9377 22.5711C25.4275 22.6733 24.9456 22.7244 24.4921 22.7244L32.1877 29.2606H26.4904L18.809 22.7244H16.1587V19.1009H24.4921C24.9551 19.0637 25.3755 18.9708 25.7535 18.8222C26.1408 18.6642 26.4715 18.4552 26.7455 18.195C27.029 17.9349 27.2463 17.6236 27.3974 17.2613C27.5486 16.8897 27.6242 16.4669 27.6242 15.9931V13.7075C27.6242 13.5031 27.5959 13.3498 27.5392 13.2476C27.4919 13.1361 27.4258 13.0571 27.3408 13.0107C27.2652 12.9549 27.1801 12.9224 27.0857 12.9131C27.0006 12.9038 26.9203 12.8992 26.8447 12.8992H14.6848V29.2606H11V11.1014C11 10.8505 11.0472 10.6136 11.1417 10.3906C11.2362 10.1676 11.3638 9.97252 11.5244 9.80529C11.6944 9.63805 11.8929 9.50797 12.1196 9.41506C12.3464 9.32215 12.592 9.2757 12.8566 9.2757H26.8447C27.6667 9.2757 28.3612 9.42436 28.9281 9.72167C29.495 10.0097 29.9532 10.3767 30.3028 10.8226C30.6618 11.2593 30.9169 11.7332 31.0681 12.2442C31.2287 12.7552 31.309 13.2337 31.309 13.6796V15.9931Z" fill="white"/>
<path d="M54.9486 29.2606H51.2637V24.355H38.3102V29.2606H34.6254V19.2681C34.6254 17.8095 34.8805 16.4669 35.3907 15.2405C35.9009 14.0141 36.6095 12.9596 37.5165 12.0769C38.4236 11.1943 39.4959 10.5068 40.7337 10.0143C41.9714 9.52191 43.3225 9.2757 44.787 9.2757H53.092C53.3471 9.2757 53.588 9.32215 53.8148 9.41506C54.0415 9.50797 54.2399 9.63805 54.41 9.80529C54.5801 9.97252 54.7123 10.1676 54.8068 10.3906C54.9013 10.6136 54.9486 10.8505 54.9486 11.1014V29.2606ZM38.3102 20.7315H51.2637V12.8992H44.787C44.6736 12.8992 44.4326 12.9178 44.0642 12.9549C43.7051 12.9828 43.2847 13.0618 42.8028 13.1918C42.3304 13.3219 41.8297 13.5217 41.3006 13.7911C40.7715 14.0606 40.2849 14.4322 39.8408 14.906C39.3967 15.3799 39.0282 15.9745 38.7354 16.6899C38.4519 17.396 38.3102 18.2554 38.3102 19.2681V20.7315Z" fill="white"/>
<path d="M79.5518 27.7136C79.5518 27.9738 79.4998 28.2154 79.3959 28.4383C79.3014 28.6613 79.1692 28.8564 78.9991 29.0237C78.8385 29.1816 78.6448 29.3071 78.418 29.4C78.1913 29.4929 77.9503 29.5393 77.6952 29.5393C77.4685 29.5393 77.237 29.4975 77.0008 29.4139C76.774 29.3303 76.5709 29.1956 76.3914 29.0097L62.9276 15.1848V29.2606H59.2428V10.8226C59.2428 10.451 59.3467 10.1165 59.5546 9.81922C59.7719 9.51262 60.0459 9.28499 60.3766 9.13634C60.7262 8.99697 61.0852 8.96445 61.4537 9.03878C61.8222 9.10382 62.1387 9.27105 62.4032 9.54049L75.867 23.3515V9.2757H79.5518V27.7136Z" fill="white"/>
<path d="M105.147 29.2606H99.9175L91.6267 21.0938H89.0331V17.4425H91.6267L99.9175 9.2757H105.147L94.7021 19.2681L105.147 29.2606ZM87.5592 29.2606H83.8744V9.2757H87.5592V29.2606Z" fill="white"/>
<path d="M126.987 23.3794C126.987 24.0948 126.892 24.7405 126.703 25.3166C126.524 25.8833 126.283 26.385 125.981 26.8217C125.678 27.2584 125.324 27.63 124.918 27.9366C124.511 28.2432 124.091 28.4941 123.656 28.6892C123.222 28.8843 122.778 29.0283 122.324 29.1212C121.88 29.2141 121.46 29.2606 121.063 29.2606H106.848V25.6371H121.063C121.771 25.6371 122.319 25.4327 122.707 25.0239C123.104 24.6151 123.302 24.0669 123.302 23.3794C123.302 23.0449 123.25 22.7383 123.146 22.4596C123.042 22.1809 122.891 21.9393 122.693 21.7349C122.504 21.5305 122.267 21.3726 121.984 21.2611C121.71 21.1496 121.403 21.0938 121.063 21.0938H112.588C111.992 21.0938 111.35 20.9916 110.66 20.7872C109.97 20.5735 109.328 20.2344 108.733 19.7699C108.147 19.3053 107.656 18.6968 107.259 17.9442C106.871 17.1916 106.678 16.2718 106.678 15.1848C106.678 14.0977 106.871 13.1826 107.259 12.4393C107.656 11.6867 108.147 11.0781 108.733 10.6136C109.328 10.1398 109.97 9.80064 110.66 9.59624C111.35 9.38255 111.992 9.2757 112.588 9.2757H125.13V12.8992H112.588C111.888 12.8992 111.34 13.1082 110.944 13.5263C110.556 13.9444 110.363 14.4972 110.363 15.1848C110.363 15.8816 110.556 16.4344 110.944 16.8432C111.34 17.2427 111.888 17.4425 112.588 17.4425H121.063H121.091C121.488 17.4518 121.908 17.5075 122.352 17.6097C122.796 17.7026 123.236 17.8513 123.67 18.0557C124.115 18.2601 124.535 18.5202 124.932 18.8361C125.329 19.1427 125.678 19.5144 125.981 19.951C126.292 20.3877 126.538 20.8894 126.718 21.4562C126.897 22.0229 126.987 22.664 126.987 23.3794Z" fill="white"/>
<path d="M87.9773 39.5606C87.9773 39.7054 87.9518 39.8622 87.9009 40.031C87.85 40.1972 87.7669 40.3527 87.6516 40.4974C87.5391 40.6395 87.3903 40.7588 87.2053 40.8553C87.0231 40.9517 86.8006 41 86.5379 41H84.6523C84.5075 41 84.3507 40.9745 84.1819 40.9236C84.0157 40.8727 83.8602 40.7909 83.7155 40.6783C83.5734 40.5631 83.4541 40.4143 83.3576 40.2321C83.2611 40.0471 83.2129 39.8233 83.2129 39.5606C83.2129 39.4159 83.2384 39.2591 83.2893 39.0902C83.3402 38.9213 83.422 38.7659 83.5345 38.6238C83.6498 38.4791 83.7986 38.3585 83.9808 38.262C84.1658 38.1655 84.3896 38.1172 84.6523 38.1172H86.5379V39.1143H84.6523C84.5102 39.1143 84.4003 39.1586 84.3226 39.247C84.2448 39.3328 84.206 39.44 84.206 39.5687C84.206 39.7054 84.2502 39.8126 84.3387 39.8903C84.4298 39.9654 84.537 40.0029 84.6603 40.0029H86.5379C86.68 40.0029 86.7899 39.96 86.8676 39.8742C86.9453 39.7885 86.9842 39.6812 86.9842 39.5526V38.0931C86.9842 37.9564 86.9413 37.8478 86.8556 37.7674C86.7725 37.687 86.6666 37.6468 86.5379 37.6468H84.2422V36.6537H86.5379C86.6827 36.6537 86.8381 36.6792 87.0043 36.7301C87.1732 36.781 87.3286 36.8641 87.4707 36.9794C87.6154 37.092 87.7361 37.2407 87.8326 37.4257C87.9291 37.608 87.9773 37.8304 87.9773 38.0931V39.5606Z" fill="white"/>
<path d="M93.6866 41H92.6412V38.5876C92.6412 38.4509 92.6171 38.329 92.5688 38.2218C92.5233 38.1119 92.4603 38.0181 92.3799 37.9403C92.2994 37.8626 92.2043 37.8036 92.0944 37.7634C91.9872 37.7205 91.8706 37.6991 91.7446 37.6991H89.9152V41H88.8699V37.1724C88.8699 37.1 88.8833 37.033 88.9101 36.9714C88.9369 36.907 88.9744 36.8521 89.0227 36.8065C89.0709 36.7583 89.1272 36.7207 89.1915 36.6939C89.2559 36.6671 89.3242 36.6537 89.3966 36.6537H91.7526C91.884 36.6537 92.022 36.6685 92.1668 36.698C92.3142 36.7274 92.4589 36.7757 92.601 36.8427C92.7457 36.907 92.8824 36.9901 93.0111 37.092C93.1424 37.1911 93.2577 37.3131 93.3569 37.4578C93.4587 37.5999 93.5391 37.7648 93.5981 37.9524C93.6571 38.14 93.6866 38.3518 93.6866 38.5876V41Z" fill="white"/>
<path d="M99.0902 39.5606C99.0902 39.7054 99.0648 39.8622 99.0138 40.031C98.9629 40.1972 98.8798 40.3527 98.7646 40.4974C98.652 40.6395 98.5032 40.7588 98.3183 40.8553C98.136 40.9517 97.9135 41 97.6509 41H95.7652C95.6205 41 95.4637 40.9745 95.2948 40.9236C95.1286 40.8727 94.9731 40.7909 94.8284 40.6783C94.6863 40.5631 94.5671 40.4143 94.4706 40.2321C94.3741 40.0471 94.3258 39.8233 94.3258 39.5606C94.3258 39.4159 94.3513 39.2591 94.4022 39.0902C94.4531 38.9213 94.5349 38.7659 94.6475 38.6238C94.7627 38.4791 94.9115 38.3585 95.0938 38.262C95.2787 38.1655 95.5025 38.1172 95.7652 38.1172H97.6509V39.1143H95.7652C95.6231 39.1143 95.5132 39.1586 95.4355 39.247C95.3578 39.3328 95.3189 39.44 95.3189 39.5687C95.3189 39.7054 95.3631 39.8126 95.4516 39.8903C95.5427 39.9654 95.6499 40.0029 95.7732 40.0029H97.6509C97.7929 40.0029 97.9028 39.96 97.9806 39.8742C98.0583 39.7885 98.0972 39.6812 98.0972 39.5526V38.0931C98.0972 37.9564 98.0543 37.8478 97.9685 37.7674C97.8854 37.687 97.7795 37.6468 97.6509 37.6468H95.3551V36.6537H97.6509C97.7956 36.6537 97.9511 36.6792 98.1173 36.7301C98.2861 36.781 98.4416 36.8641 98.5836 36.9794C98.7284 37.092 98.849 37.2407 98.9455 37.4257C99.042 37.608 99.0902 37.8304 99.0902 38.0931V39.5606Z" fill="white"/>
<path d="M101.893 41H101.426C101.276 41 101.115 40.9745 100.944 40.9236C100.775 40.8727 100.617 40.7896 100.469 40.6743C100.322 40.5564 100.2 40.4049 100.103 40.22C100.007 40.0324 99.9587 39.8032 99.9587 39.5325V34.8163H101.004V39.5325C101.004 39.6611 101.044 39.7643 101.125 39.8421C101.205 39.9171 101.306 39.9546 101.426 39.9546H101.893V41Z" fill="white"/>
<path d="M107.357 41.4181C107.357 41.5977 107.334 41.7586 107.288 41.9006C107.243 42.0454 107.182 42.1713 107.107 42.2785C107.032 42.3884 106.945 42.4809 106.846 42.556C106.747 42.6337 106.642 42.6967 106.532 42.7449C106.425 42.7932 106.317 42.828 106.207 42.8495C106.097 42.8736 105.992 42.8857 105.893 42.8857H104.007V41.8403H105.893C106.032 41.8403 106.137 41.8041 106.207 41.7317C106.276 41.6594 106.311 41.5548 106.311 41.4181V36.6537H107.357V41.4181ZM105.893 41H104.007C103.857 41 103.697 40.9745 103.525 40.9236C103.356 40.8727 103.198 40.7896 103.051 40.6743C102.903 40.5564 102.781 40.4049 102.685 40.22C102.588 40.0324 102.54 39.8032 102.54 39.5325V36.6537H103.585V39.5325C103.585 39.6692 103.621 39.7737 103.694 39.8461C103.766 39.9185 103.873 39.9546 104.015 39.9546H105.893V41Z" fill="white"/>
<path d="M112.306 37.6991H110.481V41H109.423V37.6991H108.064V36.6537H109.423V35.2345H110.481V36.6537H112.306V37.6991Z" fill="white"/>
<path d="M114.055 35.7612H113.01V34.8163H114.055V35.7612ZM114.055 41H113.01V36.6537H114.055V41Z" fill="white"/>
<path d="M119.27 41H116.435C116.29 41 116.132 40.9745 115.961 40.9236C115.789 40.8727 115.63 40.7896 115.482 40.6743C115.337 40.5564 115.216 40.4049 115.116 40.22C115.02 40.0324 114.972 39.8032 114.972 39.5325V38.1172C114.972 38.0181 114.982 37.9135 115.004 37.8036C115.028 37.6937 115.064 37.5852 115.112 37.478C115.161 37.3681 115.222 37.2635 115.297 37.1643C115.375 37.0652 115.467 36.9781 115.575 36.903C115.685 36.828 115.811 36.7676 115.953 36.7221C116.095 36.6765 116.256 36.6537 116.435 36.6537H119.27V37.6991H116.435C116.298 37.6991 116.194 37.7339 116.121 37.8036C116.052 37.8733 116.017 37.9805 116.017 38.1253V39.5325C116.017 39.6692 116.053 39.7737 116.126 39.8461C116.198 39.9185 116.304 39.9546 116.443 39.9546H119.27V41Z" fill="white"/>
<path d="M124.336 39.5325C124.336 39.7121 124.313 39.8742 124.267 40.019C124.222 40.161 124.161 40.287 124.086 40.3969C124.011 40.5041 123.924 40.5966 123.825 40.6743C123.726 40.7494 123.621 40.811 123.511 40.8593C123.404 40.9075 123.294 40.9437 123.182 40.9678C123.072 40.9893 122.967 41 122.868 41H120.038V39.9546H122.86C123.002 39.9546 123.109 39.9185 123.182 39.8461C123.254 39.7737 123.29 39.6692 123.29 39.5325C123.277 39.2537 123.136 39.1143 122.868 39.1143H121.248C121.017 39.1143 120.822 39.0741 120.661 38.9937C120.5 38.9133 120.369 38.8128 120.267 38.6922C120.168 38.5716 120.095 38.4416 120.05 38.3022C120.007 38.1628 119.985 38.0328 119.985 37.9122C119.985 37.679 120.027 37.4833 120.11 37.3252C120.193 37.1643 120.298 37.0343 120.424 36.9352C120.55 36.836 120.686 36.765 120.834 36.7221C120.981 36.6765 121.119 36.6537 121.248 36.6537H123.817V37.6991H121.256C121.202 37.6991 121.159 37.7058 121.127 37.7192C121.098 37.7299 121.075 37.746 121.059 37.7674C121.045 37.7862 121.037 37.8076 121.035 37.8318C121.032 37.8532 121.031 37.8747 121.031 37.8961C121.033 37.939 121.041 37.9725 121.055 37.9966C121.068 38.0207 121.084 38.0382 121.103 38.0489C121.124 38.0596 121.147 38.0663 121.171 38.069C121.198 38.069 121.224 38.069 121.248 38.069H122.868C123.136 38.069 123.364 38.1172 123.552 38.2137C123.739 38.3102 123.891 38.4322 124.006 38.5796C124.121 38.7243 124.204 38.8825 124.255 39.054C124.309 39.2256 124.336 39.3851 124.336 39.5325Z" fill="white"/>
</svg>
